# xmcd
#
# Track frame offsets: 
#        187
#        11785
#        27807
#        42992
#        54982
#        67167
#        79082
#        83777
#        96410
#        108542
#        119602
#        124517
#        138880
#        151292
#        162005
#        172795
#        184722
#        195535
#        208550
#        222690
#        240397
#        251845
#        265475
#        276760
#
# Disc length: 3855 seconds
#
# Revision: 3
# Processed by: cddbd v1.5.2PL0 Copyright (c) Steve Scherf et al.
# Submitted via: ExactAudioCopy v0.95b2
#
DISCID=540f0d18
DTITLE=Little Milton - Welcome To The Club - The Essential Chess Recor
DTITLE=dings [CD02)
DYEAR=1994
DGENRE=Blues
TTITLE0=I'm Mighty Grateful
TTITLE1=Give Me This Chance
TTITLE2=Loving You
TTITLE3=Man Loves Two (Man's Temptation) (Alt Take)
TTITLE4=Let Me Down Easy
TTITLE5=My Baby's Something Else
TTITLE6=Things Go Better With Coke #1
TTITLE7=You Colored My Blues Bright
TTITLE8=Moanin' For You Girl
TTITLE9=You Mean Everything To Me
TTITLE10=Things Go Better With Coke #2
TTITLE11=Nothing Beats A Failure
TTITLE12=More And More
TTITLE13=Don't Talk Back
TTITLE14=Twenty -Three Hours
TTITLE15=Grits Ain't Groceries
TTITLE16=Just A Little Bit
TTITLE17=Steal Away
TTITLE18=If Walls Could Talk
TTITLE19=Spring
TTITLE20=I'm Tired
TTITLE21=Let's Get Together
TTITLE22=I Play Dirty
TTITLE23=Baby I Love You
EXTD=
EXTT0=
EXTT1=
EXTT2=
EXTT3=
EXTT4=
EXTT5=
EXTT6=
EXTT7=
EXTT8=
EXTT9=
EXTT10=
EXTT11=
EXTT12=
EXTT13=
EXTT14=
EXTT15=
EXTT16=
EXTT17=
EXTT18=
EXTT19=
EXTT20=
EXTT21=
EXTT22=
EXTT23=
PLAYORDER=
